<svg fill="#1DA1F2" xmlns="http://www.w3.org/2000/svg" viewBox="0 0 24 24"><path d="M22.46 6.07c-.81.36-1.68.6-2.59.71.93-.55 1.64-1.42 1.98-2.45-.87.52-1.83.9-2.86 1.1-.82-.87-2-1.42-3.31-1.42-2.5 0-4.52 2.02-4.52 4.52 0 .35.04.7.09 1.04-3.75-.19-7.08-1.98-9.3-4.71-.39.67-.62 1.45-.62 2.29 0 1.57.79 2.95 1.99 3.77-.74-.02-1.44-.23-2.05-.57v.06c0 2.19 1.56 4.02 3.63 4.44-.38.1-.78.15-1.19.15-.29 0-.58-.03-.86-.08.59 1.85 2.3 3.2 4.32 3.24-1.58 1.24-3.55 1.97-5.68 1.97-.37 0-.73-.02-1.09-.05 2.03 1.3 4.43 2.06 7.03 2.06 8.44 0 13.05-7 13.05-13.05v-.59c.92-.65 1.72-1.46 2.36-2.38z"/></svg>
